<svg width="76" height="76" viewBox="0 0 76 76" fill="none" xmlns="http://www.w3.org/2000/svg">
<mask id="path-1-inside-1_2732_259" fill="white">
<path fill-rule="evenodd" clip-rule="evenodd" d="M42.5907 14.772C38.9451 14.1806 36.073 12.3001 34.8977 9.31032C33.7695 6.44012 34.4189 3.09173 36.3806 0C16.1514 0.808363 0 17.4342 0 37.8257C0 58.7333 16.9792 75.6822 37.9242 75.6822C58.8691 75.6822 75.8484 58.7333 75.8484 37.8257C75.8484 34.1367 75.3198 30.5709 74.3341 27.1997C71.5927 30.3114 68.0944 31.7405 64.7384 30.6592C62.7674 30.0241 61.0955 28.6037 59.8154 26.6543C55.9896 29.2506 51.6346 29.8719 48.0893 27.8635C44.041 25.5702 42.0934 20.4401 42.5907 14.772Z"/>
</mask>
<path fill-rule="evenodd" clip-rule="evenodd" d="M42.5907 14.772C38.9451 14.1806 36.073 12.3001 34.8977 9.31032C33.7695 6.44012 34.4189 3.09173 36.3806 0C16.1514 0.808363 0 17.4342 0 37.8257C0 58.7333 16.9792 75.6822 37.9242 75.6822C58.8691 75.6822 75.8484 58.7333 75.8484 37.8257C75.8484 34.1367 75.3198 30.5709 74.3341 27.1997C71.5927 30.3114 68.0944 31.7405 64.7384 30.6592C62.7674 30.0241 61.0955 28.6037 59.8154 26.6543C55.9896 29.2506 51.6346 29.8719 48.0893 27.8635C44.041 25.5702 42.0934 20.4401 42.5907 14.772Z" fill="#D38D48"/>
<path d="M34.8977 9.31032L33.9671 9.67617L33.9671 9.67617L34.8977 9.31032ZM42.5907 14.772L43.5869 14.8594L43.6681 13.9337L42.7509 13.7849L42.5907 14.772ZM36.3806 0L37.225 0.535764L38.2473 -1.07539L36.3407 -0.999203L36.3806 0ZM74.3341 27.1997L75.2939 26.9191L74.7842 25.176L73.5837 26.5387L74.3341 27.1997ZM64.7384 30.6592L65.045 29.7073L64.7384 30.6592ZM59.8154 26.6543L60.6513 26.1054L60.094 25.2567L59.2539 25.8268L59.8154 26.6543ZM48.0893 27.8635L48.5822 26.9934L48.5822 26.9934L48.0893 27.8635ZM33.9671 9.67617C35.3089 13.0898 38.5509 15.1297 42.4306 15.7591L42.7509 13.7849C39.3392 13.2314 36.8371 11.5104 35.8284 8.94447L33.9671 9.67617ZM35.5363 -0.535764C33.4647 2.72902 32.6857 6.41652 33.9671 9.67617L35.8284 8.94447C34.8532 6.46372 35.373 3.45444 37.225 0.535764L35.5363 -0.535764ZM1 37.8257C1 17.9747 16.7239 1.78628 36.4205 0.999203L36.3407 -0.999203C15.5789 -0.169558 -1 16.8937 -1 37.8257H1ZM37.9242 74.6822C17.5298 74.6822 1 58.1793 1 37.8257H-1C-1 59.2872 16.4286 76.6822 37.9242 76.6822V74.6822ZM74.8484 37.8257C74.8484 58.1793 58.3185 74.6822 37.9242 74.6822V76.6822C59.4197 76.6822 76.8484 59.2872 76.8484 37.8257H74.8484ZM73.3742 27.4804C74.3336 30.7613 74.8484 34.2327 74.8484 37.8257H76.8484C76.8484 34.0407 76.306 30.3805 75.2939 26.9191L73.3742 27.4804ZM64.4317 31.611C68.2921 32.8548 72.1799 31.1577 75.0844 27.8608L73.5837 26.5387C71.0056 29.4651 67.8968 30.6262 65.045 29.7073L64.4317 31.611ZM58.9795 27.2032C60.3541 29.2965 62.1955 30.8904 64.4317 31.611L65.045 29.7073C63.3392 29.1577 61.8369 27.9109 60.6513 26.1054L58.9795 27.2032ZM47.5964 28.7336C51.5664 30.9825 56.3365 30.2236 60.3769 27.4817L59.2539 25.8268C55.6426 28.2775 51.7029 28.7612 48.5822 26.9934L47.5964 28.7336ZM41.5945 14.6846C41.0772 20.5802 43.085 26.1779 47.5964 28.7336L48.5822 26.9934C44.997 24.9625 43.1095 20.3 43.5869 14.8594L41.5945 14.6846Z" fill="black" mask="url(#path-1-inside-1_2732_259)"/>
<ellipse cx="28" cy="19.5" rx="4" ry="4.5" fill="#693502"/>
<ellipse cx="44.5" cy="51" rx="4.5" ry="5" fill="#693502"/>
<circle cx="23" cy="40" r="5" fill="#693502"/>
<ellipse cx="66.5" cy="48" rx="4.5" ry="5" fill="#693502"/>
<path fill-rule="evenodd" clip-rule="evenodd" d="M55.3386 28.7124C55.1204 29.4175 55 30.1899 55 31C55 34.3137 57.0148 37 59.5 37C61.9852 37 64 34.3137 64 31C64 30.7866 63.9917 30.5757 63.9753 30.3679C62.3337 29.6409 60.9269 28.3469 59.8154 26.6543C58.3744 27.6321 56.8583 28.3298 55.3386 28.7124ZM22.5316 72.4341C23.4338 71.3369 24 69.7566 24 68C24 64.6863 21.9852 62 19.5 62C17.0183 62 15.0059 64.6785 15 67.9856C17.3165 69.7427 19.8416 71.2402 22.5316 72.4341ZM4.53943 19.8508C5.30029 21.7263 6.78857 23 8.5 23C10.9852 23 13 20.3137 13 17C13 14.6609 11.9962 12.6345 10.5316 11.6448C8.18579 14.0896 6.16528 16.8481 4.53943 19.8508Z" fill="#693502"/>
</svg>
